# xmcd
#
# Track frame offsets:
#	150
#	24579
#	47053
#	69336
#	90125
#	116373
#	136347
#	158285
#	181036
#	197440
#	222506
#	242212
#	261454
#	284343
#
# Disc length: 4057 seconds
# Revision: 0
# Processed by: cddbd v1.5.2PL0 Copyright (c) Steve Scherf et al.
# Submitted via: dBpowerAMP V12.0
#
DISCID=b80fd70e
DTITLE=Royal Southern Brotherhood - Don't Look Back
DYEAR=2015
DGENRE=Blues
TTITLE0=I Wanna Be Free
TTITLE1=Reach My Goal
TTITLE2=Don't Look Back
TTITLE3=Hit Me Once
TTITLE4=The Big Greasy
TTITLE5=Hard Blues
TTITLE6=Better Half
TTITLE7=Penzi
TTITLE8=It's Time For Love
TTITLE9=Bayou Baby
TTITLE10=Poor Boy
TTITLE11=They Don't Make 'Em Like You No More
TTITLE12=Come Hell Or High Water
TTITLE13=Anchor Me
EXTD=
EXTT0=
EXTT1=
EXTT2=
EXTT3=
EXTT4=
EXTT5=
EXTT6=
EXTT7=
EXTT8=
EXTT9=
EXTT10=
EXTT11=
EXTT12=
EXTT13=
PLAYORDER=
